<svg xmlns="http://www.w3.org/2000/svg" version="1.1" xmlns:xlink="http://www.w3.org/1999/xlink" width="512" height="512" x="0" y="0" viewBox="0 0 512 512" style="enable-background:new 0 0 512 512" xml:space="preserve" class=""><g><path d="m365.145 333.709-77.334 45.043c-2.958 1.723-5.956 3.049-9.046 3.988a32.93 32.93 0 0 0 2.323-6.179c4.109-15.34-4.989-31.35-20.714-36.447a8.017 8.017 0 0 0-1.047-.263c-22.129-3.991-44.014-11.903-61.599-18.26-6.135-2.218-11.93-4.313-16.867-5.914-20.225-6.561-38.4 1.5-53.516 10.25l-56.54 32.735-4.858-8.584c-5.266-9.302-17.119-12.587-26.42-7.323l-21.697 12.28c-9.303 5.264-12.589 17.116-7.323 26.42l63.791 112.716c2.545 4.495 6.698 7.734 11.697 9.12 1.729.479 3.483.716 5.228.716 3.299 0 6.555-.849 9.495-2.513l21.698-12.281c9.303-5.266 12.588-17.118 7.322-26.419l-6.021-10.639 11.73-6.772L234.04 471.8c5.565 1.492 11.102 2.232 16.548 2.232 11.017 0 21.661-3.034 31.392-9.024l140.342-86.417c13.295-8.186 17.534-28.777 8.895-43.202-4.184-6.985-21.315-27.746-66.072-1.68zm-250.61 141.58L92.837 487.57c-1.595.903-3.71.319-4.615-1.279l-63.79-112.715c-.904-1.598-.319-3.711 1.278-4.615l21.698-12.28a3.31 3.31 0 0 1 1.634-.426c1.191 0 2.366.619 2.981 1.706l63.791 112.715c.904 1.595.319 3.709-1.279 4.613zm299.398-110.322-140.341 86.417c-10.854 6.681-22.769 8.35-35.41 4.961l-101.794-27.276a7.999 7.999 0 0 0-6.07.799l-14.481 8.36-37.149-65.641 56.677-32.814c12.67-7.336 26.356-13.486 40.562-8.878 4.686 1.519 10.097 3.476 16.363 5.741 17.999 6.507 40.363 14.592 63.611 18.853 7.461 2.649 11.632 9.846 9.733 16.93-2.501 9.332-10.348 10.49-16.607 9.78-11.323-2.332-22.105-5.409-33.513-8.666-5.437-1.553-11.058-3.158-16.84-4.708a8 8 0 0 0-4.141 15.455c5.655 1.515 11.213 3.102 16.587 4.637 11.825 3.377 22.994 6.567 35.042 9.03.052.011.103.014.155.024.055.01.108.026.163.035l9.619 1.563c14.658 2.344 27.662.057 39.765-6.992l77.334-45.043c21.653-12.61 38.211-14.079 44.292-3.925 4.154 6.938 2.359 17.716-3.557 21.358zm-360.79 12.492a7.747 7.747 0 1 1-15.331 2.241 7.747 7.747 0 0 1 15.331-2.241zm176.222-261.596a17.744 17.744 0 0 0-16.922 12.295 17.744 17.744 0 0 0 6.491 19.915l30.458 22.04c.693.502.92 1.198.653 2.012l-11.688 35.735a17.745 17.745 0 0 0 6.455 19.925 17.765 17.765 0 0 0 10.459 3.41c3.676 0 7.352-1.144 10.486-3.43l30.374-22.157c.692-.505 1.424-.503 2.114 0l30.373 22.157a17.744 17.744 0 0 0 20.947.019 17.747 17.747 0 0 0 6.452-19.926l-11.687-35.733c-.266-.814-.04-1.509.653-2.011l30.458-22.04a17.743 17.743 0 0 0 6.492-19.915 17.744 17.744 0 0 0-16.922-12.295h-.035l-37.597.072h-.005c-.854 0-1.442-.429-1.705-1.243l-11.55-35.778a17.744 17.744 0 0 0-16.935-12.328 17.748 17.748 0 0 0-16.933 12.328l-11.548 35.778c-.264.813-.854 1.243-1.707 1.243h-.005l-37.596-.072-.03-.001zM267 131.936c7.749 0 14.551-4.95 16.934-12.327l11.549-35.778c.263-.813.854-1.244 1.707-1.244.854 0 1.444.429 1.707 1.242v.001l11.55 35.777a17.736 17.736 0 0 0 16.933 12.33h.035l37.597-.072h.005c.852 0 1.44.429 1.704 1.24.264.812.038 1.506-.654 2.007l-30.457 22.04a17.736 17.736 0 0 0-6.482 19.948l11.686 35.731c.267.813.041 1.508-.649 2.01-.69.503-1.422.5-2.112-.002l-30.373-22.156a17.741 17.741 0 0 0-20.974 0l-30.374 22.157c-.689.504-1.421.503-2.112.001-.69-.502-.916-1.197-.65-2.008l11.687-35.733a17.74 17.74 0 0 0-6.48-19.947l-30.458-22.041c-.692-.5-.919-1.195-.654-2.009.264-.811.853-1.239 1.704-1.239h.005l37.596.072zm22.189-86.644V16a8 8 0 0 1 16 0v29.292a8 8 0 0 1-16 0zm75.606 36.003a8 8 0 0 1 0-11.313l20.713-20.713a8 8 0 1 1 11.314 11.313l-20.713 20.713a7.976 7.976 0 0 1-5.657 2.343 7.97 7.97 0 0 1-5.657-2.343zM197.558 60.583a8 8 0 1 1 11.314-11.313l20.713 20.713a8 8 0 1 1-11.314 11.313zm305.665 140.562a15.531 15.531 0 0 0-14.813-10.766h-.033l-28.789.055-8.843-27.397a15.535 15.535 0 0 0-14.827-10.793 15.536 15.536 0 0 0-14.825 10.793l-8.844 27.397-28.788-.055h-.032a15.535 15.535 0 0 0-14.815 10.766 15.536 15.536 0 0 0 5.684 17.435l23.323 16.877-8.948 27.362a15.535 15.535 0 0 0 5.649 17.447 15.553 15.553 0 0 0 9.158 2.986c3.219 0 6.438-1.001 9.182-3.003l23.258-16.966 23.259 16.966a15.535 15.535 0 0 0 18.339.017 15.538 15.538 0 0 0 5.649-17.446l-8.948-27.362 23.322-16.877a15.537 15.537 0 0 0 5.682-17.436zm-38.633 21.529a15.527 15.527 0 0 0-5.676 17.465l8.639 26.416-22.453-16.379a15.53 15.53 0 0 0-18.363 0l-22.453 16.379 8.639-26.417a15.53 15.53 0 0 0-5.675-17.463l-22.517-16.293 27.793.053h.03c6.784 0 12.74-4.334 14.826-10.793l8.538-26.449 8.537 26.45a15.532 15.532 0 0 0 14.826 10.793h.03l27.793-.053zM96.345 218.58l23.323 16.877-8.948 27.362a15.535 15.535 0 0 0 5.649 17.447 15.552 15.552 0 0 0 9.158 2.987c3.219 0 6.437-1.001 9.181-3.004l23.259-16.966 23.259 16.966a15.535 15.535 0 0 0 18.339.017 15.538 15.538 0 0 0 5.649-17.446l-8.948-27.362 23.322-16.877a15.539 15.539 0 0 0 5.685-17.437 15.537 15.537 0 0 0-14.814-10.764h-.033l-28.789.055-8.843-27.397a15.535 15.535 0 0 0-14.827-10.793 15.536 15.536 0 0 0-14.825 10.793l-8.844 27.397-28.787-.055h-.032a15.536 15.536 0 0 0-14.816 10.766 15.532 15.532 0 0 0 5.682 17.434zm38.227-12.145h.03a15.529 15.529 0 0 0 14.826-10.793l8.538-26.449 8.537 26.45a15.532 15.532 0 0 0 14.826 10.793h.03l27.793-.053-22.517 16.293a15.528 15.528 0 0 0-5.674 17.464l8.639 26.416-22.453-16.379c-2.746-2.003-5.964-3.005-9.182-3.005s-6.436 1.002-9.182 3.005l-22.453 16.379 8.639-26.416a15.53 15.53 0 0 0-5.675-17.463l-22.517-16.293z" fill="#f8c894" opacity="1" data-original="#000000" class=""></path></g></svg>