<svg xmlns="http://www.w3.org/2000/svg" version="1.1" xmlns:xlink="http://www.w3.org/1999/xlink" width="512" height="512" x="0" y="0" viewBox="0 0 64 64" style="enable-background:new 0 0 512 512" xml:space="preserve"><g><path d="M53.31 17.97c-.11-.03-2.41-.78-5.46-.94.75-5.42-.83-10.37-.91-10.59a1.01 1.01 0 0 0-1.16-.67c-.1.02-2.44.52-5.29 1.87-.95.45-1.82.94-2.63 1.45-2.1-4-5.02-6.66-5.21-6.83a.995.995 0 0 0-1.33 0c-.19.17-3.11 2.83-5.21 6.83-.81-.51-1.69-1-2.64-1.45-2.84-1.34-5.18-1.84-5.28-1.86-.5-.11-1 .18-1.16.67-.07.22-1.66 5.18-.91 10.59-3.05.16-5.35.9-5.46.94-.48.16-.77.66-.67 1.15.07.34 1.83 8.47 7.95 12 2.13 1.23 4.78 1.87 7.75 1.87.56 0 1.14-.02 1.73-.07.55-.04.96-.53.92-1.08s-.52-.96-1.08-.92c-2.27.18-5.56.06-8.31-1.54-4.22-2.44-6.13-7.67-6.75-9.77.93-.23 2.5-.54 4.32-.61.35 1.4.86 2.7 1.54 3.86 1.27 2.19 3.18 4.12 5.69 5.72.17.11.35.16.54.16.33 0 .65-.16.84-.46.3-.46.16-1.08-.3-1.38-2.24-1.43-3.93-3.13-5.03-5.04-.7-1.2-1.2-2.57-1.51-4.08-.82-4.03-.03-8.08.4-9.84.89.25 2.33.72 3.93 1.48.96.46 1.85.95 2.65 1.47-.75 1.85-1.28 3.9-1.28 6.08 0 8.09 7.03 14.48 7.33 14.75.19.17.43.25.67.25s.48-.08.67-.25c.3-.27 7.33-6.66 7.33-14.75 0-2.18-.52-4.24-1.28-6.08.8-.52 1.68-1.01 2.64-1.47 1.6-.76 3.05-1.23 3.93-1.48.44 1.76 1.22 5.81.4 9.84-.3 1.5-.81 2.87-1.51 4.08-1.1 1.91-2.8 3.61-5.03 5.04-.47.3-.6.92-.3 1.38a.996.996 0 0 0 1.38.3c2.51-1.61 4.42-3.53 5.69-5.72.67-1.16 1.18-2.46 1.54-3.86 1.79.09 3.39.37 4.32.6-.62 2.11-2.53 7.33-6.75 9.77-2.75 1.6-6.04 1.72-8.31 1.54-.55-.04-1.03.37-1.08.92s.37 1.03.92 1.08c.59.05 1.16.07 1.73.07 2.97 0 5.62-.64 7.74-1.87 6.12-3.53 7.88-11.66 7.95-12 .1-.5-.18-.99-.67-1.15zM32 29.6c-1.69-1.75-6-6.79-6-12.6s4.31-10.84 6-12.6c1.69 1.75 6 6.79 6 12.6s-4.31 10.84-6 12.6zM48.31 47.23c-.26 0-.51-.1-.71-.29a.996.996 0 0 1 0-1.41l4.96-4.96c.58-.58.58-1.54 0-2.12-.57-.57-1.56-.57-2.12 0l-4.96 4.96A.996.996 0 1 1 44.07 42l4.96-4.96c1.32-1.32 3.63-1.32 4.95 0s1.36 3.58 0 4.95l-4.96 4.96c-.2.2-.45.29-.71.29z" fill="#f8c894" opacity="1" data-original="#000000"></path><path d="M50 62c-.55 0-1-.45-1-1v-6.47c0-.75.28-1.47.79-2.03l2.07-2.25a.997.997 0 1 1 1.47 1.35l-2.07 2.25c-.17.19-.27.43-.27.67v6.47c0 .55-.45 1-1 1zm-11 0c-.55 0-1-.45-1-1v-9.23c0-2.4.94-4.66 2.63-6.36l8.39-8.39c1.07-1.07 2.68-1.29 3.98-.68v-8.7c0-1.86 1.38-3.45 3.14-3.62 1-.1 1.98.22 2.71.89.73.66 1.15 1.61 1.15 2.6v13.76c0 2.03-.76 3.96-2.13 5.43l-1.82 1.98a.997.997 0 1 1-1.47-1.35l1.82-1.98a5.958 5.958 0 0 0 1.6-4.07V27.52c0-.43-.18-.83-.49-1.12-.32-.29-.73-.42-1.17-.38-.75.08-1.34.79-1.34 1.63v11.36c0 .13-.02.25-.07.37l-.04.1c-.17.42-.59.67-1.04.62s-.81-.39-.88-.84c-.05-.33-.19-.6-.41-.82-.58-.58-1.54-.58-2.13 0l-8.39 8.39a6.953 6.953 0 0 0-2.05 4.94V61c0 .55-.45 1-1 1zM15.69 47.23c-.26 0-.51-.1-.71-.29l-4.96-4.96a3.513 3.513 0 0 1 0-4.95c1.32-1.32 3.63-1.32 4.95 0l4.96 4.96a.996.996 0 1 1-1.41 1.41l-4.96-4.96c-.57-.57-1.56-.57-2.12 0-.58.58-.58 1.54 0 2.12l4.96 4.96a.996.996 0 0 1-.71 1.7z" fill="#f8c894" opacity="1" data-original="#000000"></path><path d="M25 62c-.55 0-1-.45-1-1v-9.23c0-1.87-.73-3.62-2.05-4.94l-8.39-8.39c-.59-.58-1.54-.58-2.13 0-.22.22-.35.49-.41.82a1.003 1.003 0 0 1-1.92.22l-.04-.1a.971.971 0 0 1-.07-.37V27.65c0-.84-.59-1.56-1.34-1.63-.43-.04-.85.09-1.17.38s-.49.68-.49 1.12v5.5c0 .55-.45 1-1 1s-1-.45-1-1v-5.5c0-.99.42-1.94 1.15-2.6s1.72-.98 2.71-.89c1.76.18 3.14 1.77 3.14 3.62v8.7c1.3-.61 2.9-.38 3.97.68l8.39 8.39c1.7 1.7 2.63 3.96 2.63 6.36v9.23c0 .55-.45 1-1 1zm-11 0c-.55 0-1-.45-1-1v-6.47c0-.25-.09-.49-.27-.67l-6.61-7.17A7.931 7.931 0 0 1 4 41.26V37c0-.55.45-1 1-1s1 .45 1 1v4.26c0 1.52.57 2.96 1.59 4.07l6.61 7.17c.51.56.79 1.28.79 2.03V61c0 .55-.45 1-1 1z" fill="#f8c894" opacity="1" data-original="#000000"></path></g></svg>