<svg xmlns="http://www.w3.org/2000/svg" version="1.1" xmlns:xlink="http://www.w3.org/1999/xlink" width="512" height="512" x="0" y="0" viewBox="0 0 64 64" style="enable-background:new 0 0 512 512" xml:space="preserve" class=""><g><path d="M4.57 25.69v.143l-.002.013v31.02C4.568 59.697 6.875 62 9.711 62h44.578c2.836 0 5.143-2.303 5.143-5.134v-31.02l-.002-.013v-.383a.999.999 0 0 0-.334-.746l-5.195-4.613V7.29a1 1 0 0 0-1-1H38.38l-3.655-3.247a4.102 4.102 0 0 0-5.453.003L25.666 6.29H11.1a1 1 0 0 0-1 1v12.984l-5.198 4.673a.999.999 0 0 0-.331.744zM54.289 60H9.711a3.143 3.143 0 0 1-3.143-3.134V28.071l2.376 2.106 6.854 6.078 8.087 7.173L9.547 56.146a1 1 0 0 0 1.328 1.496l14.517-12.877 3.712 3.293c.825.734 1.859 1.101 2.895 1.101s2.069-.367 2.894-1.1l3.709-3.289 14.523 12.873a.998.998 0 0 0 1.411-.085 1.001 1.001 0 0 0-.085-1.412L40.109 43.433l8.931-7.922 5.921-5.25 2.471-2.189v28.796a3.142 3.142 0 0 1-3.143 3.134zm2.86-34.352-2.704 2.397-.545.483v-5.764l3.248 2.884zM30.605 4.537a2.098 2.098 0 0 1 2.79 0l1.973 1.752h-6.712l1.949-1.753zM12.099 8.29H51.9V30.3l-3.917 3.474-9.814 8.702a.97.97 0 0 0-.362.251c-.039.044-.054.097-.084.145l-4.156 3.685a2.365 2.365 0 0 1-3.135 0l-4.145-3.676c-.032-.055-.051-.115-.095-.164a.962.962 0 0 0-.376-.254l-9.028-8.005-4.688-4.159V8.29zm-2 20.238-.745-.661-2.371-2.103 3.117-2.801v5.564z" fill="#f8c894" opacity="1" data-original="#000000" class=""></path><path d="M24.1 15.48h21.971a1 1 0 1 0 0-2H24.1a1 1 0 1 0 0 2zM17.92 15.48h2.43a1 1 0 1 0 0-2h-2.43a1 1 0 1 0 0 2zM46.074 18.081H17.925a1 1 0 1 0 0 2h28.149a1 1 0 1 0 0-2zM46.07 24.68a1 1 0 1 0 0-2h-2.811a1 1 0 1 0 0 2zM17.92 24.68h21.6a1 1 0 1 0 0-2h-21.6a1 1 0 1 0 0 2zM46.074 27.274H17.925a1 1 0 1 0 0 2h28.149a1 1 0 1 0 0-2zM42.226 31.871H17.925a1 1 0 1 0 0 2h24.301a1 1 0 1 0 0-2z" fill="#f8c894" opacity="1" data-original="#000000" class=""></path></g></svg>