<svg xmlns="http://www.w3.org/2000/svg" version="1.1" xmlns:xlink="http://www.w3.org/1999/xlink" width="512" height="512" x="0" y="0" viewBox="0 0 32 31" style="enable-background:new 0 0 512 512" xml:space="preserve" fill-rule="evenodd" class=""><g><path d="M16 2c5.26 0 9.5 4.05 9.5 9 0 5.814-5.634 15.004-7.837 18.33a1.992 1.992 0 0 1-3.327 0C12.135 26.006 6.5 16.814 6.5 11c0-4.95 4.24-9 9.5-9zm0 26.22c1.264-1.91 3.73-5.826 5.5-9.854 1.139-2.59 2-5.222 2-7.366 0-3.88-3.377-7-7.5-7s-7.5 3.12-7.5 7c0 2.144.862 4.775 2 7.366 1.77 4.028 4.235 7.944 5.5 9.855zM16 6a5.252 5.252 0 0 1 5.25 5.25c0 2.897-2.352 5.25-5.25 5.25s-5.25-2.353-5.25-5.25A5.252 5.252 0 0 1 16 6zm0 2a3.252 3.252 0 0 0-3.25 3.25c0 1.794 1.457 3.25 3.25 3.25s3.25-1.456 3.25-3.25A3.252 3.252 0 0 0 16 8z" fill="#f8c894" opacity="1" data-original="#000000"></path></g></svg>