<svg xmlns="http://www.w3.org/2000/svg" version="1.1" xmlns:xlink="http://www.w3.org/1999/xlink" width="512" height="512" x="0" y="0" viewBox="0 0 64 64" style="enable-background:new 0 0 512 512" xml:space="preserve" class=""><g><path d="M13.287 10.17c-3.566.773-6.83 3.191-8.955 6.634-2.167 3.51-2.864 7.645-1.913 11.344 1.373 5.34 5.75 8.225 8.236 9.471 1.966.985 3.183 2.96 3.1 5.028-.009.204-.026.381-.042.529-.496 4.23-4.816 7.907-10.504 8.942a1 1 0 0 0 .178 1.984l.06-.002c3.45-.202 15.263-1.655 22.343-11.899 4.972-7.193 7.794-18.324 2.243-25.764-3.022-4.053-8.75-7.562-14.746-6.266zm10.859 30.894c-3.425 4.955-8.156 7.69-12.28 9.2 2.145-1.876 3.529-4.254 3.833-6.857.023-.19.043-.416.054-.678.115-2.855-1.534-5.563-4.202-6.899-2.666-1.335-6.078-3.838-7.195-8.18-.817-3.174-.205-6.746 1.677-9.796 1.841-2.983 4.639-5.07 7.678-5.728a9.838 9.838 0 0 1 2.095-.223c4.347 0 8.42 2.775 10.624 5.729 5.71 7.656 1.003 18.676-2.284 23.432zM44.208 10.17c-3.566.773-6.83 3.19-8.954 6.633-2.167 3.51-2.865 7.646-1.914 11.345 1.374 5.34 5.75 8.226 8.236 9.471 1.967.985 3.184 2.96 3.1 5.028a6.814 6.814 0 0 1-.042.529c-.496 4.23-4.816 7.907-10.504 8.942a1 1 0 0 0 .178 1.984l.06-.002c3.45-.202 15.263-1.655 22.343-11.899 4.972-7.192 7.795-18.323 2.243-25.764-3.022-4.053-8.756-7.56-14.746-6.266zm10.858 30.894c-3.424 4.955-8.154 7.689-12.278 9.2 2.145-1.875 3.526-4.252 3.832-6.852.023-.19.043-.419.054-.683.116-2.854-1.533-5.562-4.202-6.899-2.665-1.334-6.077-3.837-7.195-8.18-.816-3.175-.205-6.747 1.678-9.797 1.84-2.982 4.639-5.07 7.677-5.727.7-.152 1.4-.223 2.095-.223 4.347 0 8.421 2.775 10.624 5.729 5.712 7.657 1.003 18.676-2.285 23.432z" fill="#f8c894" opacity="1" data-original="#000000"></path></g></svg>