<svg width="71" height="16" viewBox="0 0 71 16" fill="none" xmlns="http://www.w3.org/2000/svg">
<path d="M2.868 12V4.428H0.36V3.6H6.384V4.428H3.876V12H2.868ZM6.89859 12V5.844H7.81059L7.89459 6.996C8.03059 6.716 8.20659 6.48 8.42259 6.288C8.64659 6.096 8.91459 5.952 9.22659 5.856C9.53859 5.752 9.89059 5.7 10.2826 5.7V6.756H9.81459C9.56659 6.756 9.32659 6.792 9.09459 6.864C8.87059 6.928 8.66659 7.036 8.48259 7.188C8.30659 7.332 8.16659 7.532 8.06259 7.788C7.95859 8.044 7.90659 8.364 7.90659 8.748V12H6.89859ZM11.5418 12V5.844H12.5498V12H11.5418ZM12.0458 4.596C11.8458 4.596 11.6778 4.532 11.5418 4.404C11.4138 4.268 11.3498 4.1 11.3498 3.9C11.3498 3.7 11.4138 3.54 11.5418 3.42C11.6778 3.292 11.8458 3.228 12.0458 3.228C12.2378 3.228 12.4018 3.292 12.5378 3.42C12.6738 3.54 12.7418 3.7 12.7418 3.9C12.7418 4.1 12.6738 4.268 12.5378 4.404C12.4018 4.532 12.2378 4.596 12.0458 4.596ZM14.4246 12V5.844H15.4326V12H14.4246ZM14.9286 4.596C14.7286 4.596 14.5606 4.532 14.4246 4.404C14.2966 4.268 14.2326 4.1 14.2326 3.9C14.2326 3.7 14.2966 3.54 14.4246 3.42C14.5606 3.292 14.7286 3.228 14.9286 3.228C15.1206 3.228 15.2846 3.292 15.4206 3.42C15.5566 3.54 15.6246 3.7 15.6246 3.9C15.6246 4.1 15.5566 4.268 15.4206 4.404C15.2846 4.532 15.1206 4.596 14.9286 4.596ZM17.1994 12V5.844H18.1114L18.1714 6.876C18.3554 6.508 18.6234 6.22 18.9754 6.012C19.3274 5.804 19.7314 5.7 20.1874 5.7C20.6594 5.7 21.0674 5.792 21.4114 5.976C21.7554 6.16 22.0234 6.44 22.2154 6.816C22.4074 7.184 22.5034 7.652 22.5034 8.22V12H21.4954V8.328C21.4954 7.744 21.3594 7.304 21.0874 7.008C20.8154 6.712 20.4394 6.564 19.9594 6.564C19.6394 6.564 19.3434 6.644 19.0714 6.804C18.8074 6.964 18.5954 7.196 18.4354 7.5C18.2834 7.796 18.2074 8.164 18.2074 8.604V12H17.1994Z" fill="#F8C894"/>
<path d="M30.7872 12.144C30.1712 12.144 29.6352 12.032 29.1792 11.808C28.7232 11.584 28.3712 11.272 28.1232 10.872C27.8752 10.472 27.7512 10.008 27.7512 9.48H28.8072C28.8072 9.808 28.8832 10.112 29.0352 10.392C29.1872 10.664 29.4072 10.884 29.6952 11.052C29.9912 11.212 30.3552 11.292 30.7872 11.292C31.1632 11.292 31.4832 11.232 31.7472 11.112C32.0192 10.984 32.2232 10.812 32.3592 10.596C32.5032 10.38 32.5752 10.136 32.5752 9.864C32.5752 9.544 32.5072 9.284 32.3712 9.084C32.2352 8.876 32.0472 8.708 31.8072 8.58C31.5752 8.452 31.3032 8.34 30.9912 8.244C30.6792 8.14 30.3512 8.028 30.0072 7.908C29.3272 7.684 28.8272 7.404 28.5072 7.068C28.1952 6.732 28.0392 6.296 28.0392 5.76C28.0392 5.304 28.1432 4.904 28.3512 4.56C28.5672 4.216 28.8712 3.948 29.2632 3.756C29.6632 3.556 30.1352 3.456 30.6792 3.456C31.2152 3.456 31.6792 3.556 32.0712 3.756C32.4712 3.956 32.7832 4.232 33.0072 4.584C33.2312 4.928 33.3432 5.328 33.3432 5.784H32.2872C32.2872 5.552 32.2272 5.324 32.1072 5.1C31.9872 4.876 31.8032 4.692 31.5552 4.548C31.3152 4.396 31.0112 4.32 30.6432 4.32C30.3392 4.312 30.0672 4.364 29.8272 4.476C29.5952 4.58 29.4112 4.732 29.2752 4.932C29.1472 5.132 29.0832 5.376 29.0832 5.664C29.0832 5.936 29.1392 6.156 29.2512 6.324C29.3712 6.492 29.5392 6.636 29.7552 6.756C29.9792 6.868 30.2392 6.972 30.5352 7.068C30.8312 7.164 31.1592 7.272 31.5192 7.392C31.9272 7.528 32.2872 7.696 32.5992 7.896C32.9192 8.088 33.1672 8.336 33.3432 8.64C33.5272 8.944 33.6192 9.332 33.6192 9.804C33.6192 10.204 33.5112 10.584 33.2952 10.944C33.0872 11.296 32.7752 11.584 32.3592 11.808C31.9432 12.032 31.4192 12.144 30.7872 12.144ZM37.2556 12.144C36.7916 12.144 36.3836 12.056 36.0316 11.88C35.6876 11.696 35.4196 11.416 35.2276 11.04C35.0436 10.664 34.9516 10.192 34.9516 9.624V5.844H35.9596V9.516C35.9596 10.108 36.0916 10.552 36.3556 10.848C36.6276 11.136 36.9996 11.28 37.4716 11.28C37.8076 11.28 38.1076 11.204 38.3716 11.052C38.6356 10.892 38.8436 10.66 38.9956 10.356C39.1556 10.052 39.2356 9.684 39.2356 9.252V5.844H40.2436V12H39.3316L39.2716 10.968C39.0876 11.336 38.8196 11.624 38.4676 11.832C38.1156 12.04 37.7116 12.144 37.2556 12.144ZM44.1579 12.144C43.6939 12.144 43.2859 12.056 42.9339 11.88C42.5899 11.696 42.3219 11.416 42.1299 11.04C41.9459 10.664 41.8539 10.192 41.8539 9.624V5.844H42.8619V9.516C42.8619 10.108 42.9939 10.552 43.2579 10.848C43.5299 11.136 43.9019 11.28 44.3739 11.28C44.7099 11.28 45.0099 11.204 45.2739 11.052C45.5379 10.892 45.7459 10.66 45.8979 10.356C46.0579 10.052 46.1379 9.684 46.1379 9.252V5.844H47.1459V12H46.2339L46.1739 10.968C45.9899 11.336 45.7219 11.624 45.3699 11.832C45.0179 12.04 44.6139 12.144 44.1579 12.144ZM48.8283 12V5.844H49.7403L49.8243 6.996C49.9603 6.716 50.1363 6.48 50.3523 6.288C50.5763 6.096 50.8443 5.952 51.1563 5.856C51.4683 5.752 51.8203 5.7 52.2123 5.7V6.756H51.7443C51.4963 6.756 51.2563 6.792 51.0243 6.864C50.8003 6.928 50.5963 7.036 50.4123 7.188C50.2363 7.332 50.0963 7.532 49.9923 7.788C49.8883 8.044 49.8363 8.364 49.8363 8.748V12H48.8283ZM55.8528 12.144C55.2768 12.144 54.7648 12.012 54.3168 11.748C53.8688 11.484 53.5168 11.112 53.2608 10.632C53.0128 10.144 52.8888 9.576 52.8888 8.928C52.8888 8.272 53.0168 7.704 53.2728 7.224C53.5288 6.744 53.8808 6.372 54.3288 6.108C54.7848 5.836 55.3008 5.7 55.8768 5.7C56.4528 5.7 56.9648 5.836 57.4128 6.108C57.8608 6.372 58.2088 6.744 58.4568 7.224C58.7128 7.704 58.8408 8.272 58.8408 8.928C58.8408 9.576 58.7128 10.144 58.4568 10.632C58.2008 11.112 57.8448 11.484 57.3888 11.748C56.9408 12.012 56.4288 12.144 55.8528 12.144ZM55.8528 11.28C56.2128 11.28 56.5408 11.192 56.8368 11.016C57.1328 10.84 57.3688 10.576 57.5448 10.224C57.7208 9.872 57.8088 9.44 57.8088 8.928C57.8088 8.4 57.7208 7.964 57.5448 7.62C57.3768 7.268 57.1448 7.004 56.8488 6.828C56.5528 6.652 56.2288 6.564 55.8768 6.564C55.5248 6.564 55.2008 6.652 54.9048 6.828C54.6088 7.004 54.3688 7.268 54.1848 7.62C54.0088 7.964 53.9208 8.4 53.9208 8.928C53.9208 9.44 54.0088 9.872 54.1848 10.224C54.3608 10.576 54.5928 10.84 54.8808 11.016C55.1768 11.192 55.5008 11.28 55.8528 11.28ZM60.2775 12V5.844H61.1895L61.2735 6.996C61.4095 6.716 61.5855 6.48 61.8015 6.288C62.0255 6.096 62.2935 5.952 62.6055 5.856C62.9175 5.752 63.2695 5.7 63.6615 5.7V6.756H63.1935C62.9455 6.756 62.7055 6.792 62.4735 6.864C62.2495 6.928 62.0455 7.036 61.8615 7.188C61.6855 7.332 61.5455 7.532 61.4415 7.788C61.3375 8.044 61.2855 8.364 61.2855 8.748V12H60.2775ZM67.096 14.784C66.544 14.784 66.056 14.712 65.632 14.568C65.208 14.432 64.88 14.22 64.648 13.932C64.416 13.644 64.3 13.288 64.3 12.864C64.3 12.672 64.336 12.472 64.408 12.264C64.488 12.056 64.62 11.852 64.804 11.652C64.996 11.452 65.264 11.272 65.608 11.112L66.328 11.52C65.896 11.696 65.612 11.896 65.476 12.12C65.348 12.352 65.284 12.568 65.284 12.768C65.284 13.032 65.36 13.252 65.512 13.428C65.664 13.604 65.876 13.736 66.148 13.824C66.428 13.912 66.744 13.956 67.096 13.956C67.448 13.956 67.748 13.908 67.996 13.812C68.252 13.716 68.448 13.58 68.584 13.404C68.72 13.236 68.788 13.032 68.788 12.792C68.788 12.496 68.684 12.252 68.476 12.06C68.268 11.876 67.864 11.768 67.264 11.736C66.784 11.704 66.38 11.66 66.052 11.604C65.732 11.548 65.468 11.484 65.26 11.412C65.052 11.332 64.876 11.244 64.732 11.148C64.596 11.052 64.472 10.952 64.36 10.848V10.572L65.536 9.42L66.436 9.732L65.2 10.812L65.356 10.368C65.444 10.432 65.528 10.492 65.608 10.548C65.688 10.604 65.796 10.656 65.932 10.704C66.068 10.744 66.26 10.784 66.508 10.824C66.756 10.856 67.084 10.888 67.492 10.92C68.052 10.96 68.5 11.056 68.836 11.208C69.172 11.36 69.412 11.568 69.556 11.832C69.708 12.088 69.784 12.396 69.784 12.756C69.784 13.1 69.688 13.424 69.496 13.728C69.312 14.04 69.02 14.292 68.62 14.484C68.228 14.684 67.72 14.784 67.096 14.784ZM67.084 10.08C66.58 10.08 66.148 9.984 65.788 9.792C65.436 9.592 65.168 9.328 64.984 9C64.8 8.672 64.708 8.304 64.708 7.896C64.708 7.48 64.8 7.112 64.984 6.792C65.176 6.464 65.448 6.2 65.8 6C66.152 5.8 66.58 5.7 67.084 5.7C67.596 5.7 68.028 5.8 68.38 6C68.732 6.2 69 6.464 69.184 6.792C69.368 7.112 69.46 7.48 69.46 7.896C69.46 8.304 69.368 8.672 69.184 9C69 9.328 68.732 9.592 68.38 9.792C68.028 9.984 67.596 10.08 67.084 10.08ZM67.084 9.252C67.524 9.252 67.868 9.136 68.116 8.904C68.364 8.672 68.488 8.336 68.488 7.896C68.488 7.448 68.364 7.112 68.116 6.888C67.868 6.656 67.524 6.54 67.084 6.54C66.66 6.54 66.316 6.656 66.052 6.888C65.788 7.112 65.656 7.448 65.656 7.896C65.656 8.336 65.784 8.672 66.04 8.904C66.304 9.136 66.652 9.252 67.084 9.252ZM68.092 6.696L67.792 5.844H70.264V6.6L68.092 6.696Z" fill="#343434"/>
</svg>
